<!-- <svg xmlns="http://www.w3.org/2000/svg" fill="none" viewBox="0 0 24 24" stroke-width="1.25" stroke="white" class="w-6 h-6">
    <path stroke-linecap="round" stroke-linejoin="round" d="M14.857 17.082a23.848 23.848 0 005.454-1.31A8.967 8.967 0 0118 9.75v-.7V9A6 6 0 006 9v.75a8.967 8.967 0 01-2.312 6.022c1.733.64 3.56 1.085 5.455 1.31m5.714 0a24.255 24.255 0 01-5.714 0m5.714 0a3 3 0 11-5.714 0" />
</svg> -->
<svg width="10" height="10" viewBox="0 0 22 22" fill="none" xmlns="http://www.w3.org/2000/svg">
<path d="M11 8.92188V5.27604M11 12.5677H11.0108M8.725 17.9844L10.3067 20.0122C10.5419 20.3137 10.6595 20.4645 10.8037 20.5184C10.9299 20.5656 11.0701 20.5656 11.1963 20.5184C11.3405 20.4645 11.4581 20.3137 11.6933 20.0122L13.275 17.9844C13.5926 17.5772 13.7514 17.3737 13.945 17.2182C14.2033 17.011 14.5082 16.8644 14.8355 16.7901C15.0811 16.7344 15.3457 16.7344 15.875 16.7344C17.3893 16.7344 18.1465 16.7344 18.7437 16.4965C19.5401 16.1793 20.1728 15.571 20.5026 14.8053C20.75 14.231 20.75 13.5029 20.75 12.0469V6.10938C20.75 4.35921 20.75 3.48413 20.3958 2.81565C20.0842 2.22765 19.587 1.74958 18.9755 1.44998C18.2803 1.10938 17.3702 1.10938 15.55 1.10938H6.45C4.62983 1.10938 3.71974 1.10938 3.02453 1.44998C2.413 1.74958 1.91582 2.22765 1.60423 2.81565C1.25 3.48413 1.25 4.35921 1.25 6.10938V12.0469C1.25 13.5029 1.25 14.231 1.49739 14.8053C1.82725 15.571 2.45994 16.1793 3.25628 16.4965C3.85353 16.7344 4.61069 16.7344 6.125 16.7344C6.65429 16.7344 6.91894 16.7344 7.16447 16.7901C7.49183 16.8644 7.79671 17.011 8.05495 17.2182C8.24864 17.3737 8.40742 17.5772 8.725 17.9844Z" stroke="#C3C3C3" stroke-opacity="0.8" stroke-width="1.2" stroke-linecap="round" stroke-linejoin="round"/>
</svg>
