<!-- <svg xmlns="http://www.w3.org/2000/svg" fill="none" viewBox="0 0 24 24" stroke="white" stroke-width="1.25" class="w-6 h-6">
    <path stroke-linecap="round" stroke-linejoin="round" d="M21 7.5l-2.25-1.313M21 7.5v2.25m0-2.25l-2.25 1.313M3 7.5l2.25-1.313M3 7.5l2.25 1.313M3 7.5v2.25m9 3l2.25-1.313M12 12.75l-2.25-1.313M12 12.75V15m0 6.75l2.25-1.313M12 21.75V19.5m0 2.25l-2.25-1.313m0-16.875L12 2.25l2.25 1.313M21 14.25v2.25l-2.25 1.313m-13.5 0L3 16.5v-2.25" />
</svg> -->
<svg width="20" height="21" viewBox="0 0 20 21" fill="none" xmlns="http://www.w3.org/2000/svg">
<path d="M6 11.9844V15.9844M14 9.98438V15.9844M10 5.98438V15.9844M5.8 19.9844H14.2C15.8802 19.9844 16.7202 19.9844 17.362 19.6574C17.9265 19.3698 18.3854 18.9108 18.673 18.3463C19 17.7046 19 16.8645 19 15.1844V6.78438C19 5.10422 19 4.26414 18.673 3.6224C18.3854 3.05792 17.9265 2.59898 17.362 2.31136C16.7202 1.98438 15.8802 1.98438 14.2 1.98438H5.8C4.11984 1.98438 3.27976 1.98438 2.63803 2.31136C2.07354 2.59898 1.6146 3.05792 1.32698 3.6224C1 4.26414 1 5.10422 1 6.78437V15.1844C1 16.8645 1 17.7046 1.32698 18.3463C1.6146 18.9108 2.07354 19.3698 2.63803 19.6574C3.27976 19.9844 4.11984 19.9844 5.8 19.9844Z" stroke="#C3C3C3" stroke-opacity="0.8" stroke-width="1.2" stroke-linecap="round" stroke-linejoin="round"/>
</svg>
